<?xml version="1.0" encoding="UTF-8" standalone="no"?>
<!DOCTYPE svg PUBLIC "-//W3C//DTD SVG 1.1//EN"
 "http://www.w3.org/Graphics/SVG/1.1/DTD/svg11.dtd">
<!-- Generated by graphviz version 15.1.0 (0)
 -->
<!-- Title: gabbro_crypto_stack Pages: 1 -->
<svg width="953pt" height="1108pt"
 viewBox="0.00 0.00 953.00 1108.00" xmlns="http://www.w3.org/2000/svg" xmlns:xlink="http://www.w3.org/1999/xlink">
<g id="graph0" class="graph" transform="scale(1 1) rotate(0) translate(4 1103.5)">
<title>gabbro_crypto_stack</title>
<polygon fill="white" stroke="none" points="-4,4 -4,-1103.5 949.38,-1103.5 949.38,4 -4,4"/>
<text xml:space="preserve" text-anchor="start" x="325.69" y="-1083.2" font-family="Helvetica,sans-Serif" font-weight="bold" font-size="14.00">Gabbro crypto stack · file&#45;format VERSION 11</text>
<text xml:space="preserve" text-anchor="start" x="287.06" y="-1073" font-family="Helvetica,sans-Serif" font-size="10.00">passphrase → Argon2id → HKDF&#45;SHA256 → AES&#45;256&#45;GCM (header bound as AAD)</text>
<g id="clust1" class="cluster">
<title>cluster_kdf</title>
<path fill="white" stroke="#b08900" stroke-dasharray="5,2" d="M361,-905C361,-905 537,-905 537,-905 543,-905 549,-911 549,-917 549,-917 549,-1047.5 549,-1047.5 549,-1053.5 543,-1059.5 537,-1059.5 537,-1059.5 361,-1059.5 361,-1059.5 355,-1059.5 349,-1053.5 349,-1047.5 349,-1047.5 349,-917 349,-917 349,-911 355,-905 361,-905"/>
<text xml:space="preserve" text-anchor="middle" x="449" y="-1045.05" font-family="Helvetica,sans-Serif" font-size="11.00">Key derivation (from passphrase)</text>
</g>
<g id="clust2" class="cluster">
<title>cluster_hkdf</title>
<path fill="white" stroke="#3c8c3c" stroke-dasharray="5,2" d="M353,-719.5C353,-719.5 545,-719.5 545,-719.5 551,-719.5 557,-725.5 557,-731.5 557,-731.5 557,-874 557,-874 557,-880 551,-886 545,-886 545,-886 353,-886 353,-886 347,-886 341,-880 341,-874 341,-874 341,-731.5 341,-731.5 341,-725.5 347,-719.5 353,-719.5"/>
<text xml:space="preserve" text-anchor="middle" x="449" y="-871.55" font-family="Helvetica,sans-Serif" font-size="11.00">Vault&#45;key derivation (ADR&#45;018)</text>
</g>
<g id="clust3" class="cluster">
<title>cluster_pp</title>
<path fill="white" stroke="#3f72b0" stroke-dasharray="5,2" d="M490,-190C490,-190 634,-190 634,-190 640,-190 646,-196 646,-202 646,-202 646,-332.5 646,-332.5 646,-338.5 640,-344.5 634,-344.5 634,-344.5 490,-344.5 490,-344.5 484,-344.5 478,-338.5 478,-332.5 478,-332.5 478,-202 478,-202 478,-196 484,-190 490,-190"/>
<text xml:space="preserve" text-anchor="middle" x="562" y="-330.05" font-family="Helvetica,sans-Serif" font-size="11.00">Vault type A — passphrase only</text>
</g>
<g id="clust4" class="cluster">
<title>cluster_yk</title>
<path fill="white" stroke="#9b59b6" stroke-dasharray="5,2" d="M141,-190C141,-190 458,-190 458,-190 464,-190 470,-196 470,-202 470,-202 470,-679 470,-679 470,-685 464,-691 458,-691 458,-691 141,-691 141,-691 135,-691 129,-685 129,-679 129,-679 129,-202 129,-202 129,-196 135,-190 141,-190"/>
<text xml:space="preserve" text-anchor="middle" x="299.5" y="-676.55" font-family="Helvetica,sans-Serif" font-size="11.00">Vault type B — passphrase + 2–4 YubiKeys (multi&#45;key)</text>
</g>
<!-- pass -->
<g id="node1" class="node">
<title>pass</title>
<path fill="#fde9c8" stroke="#444444" stroke-width="1.1" d="M470.12,-1030C470.12,-1030 427.88,-1030 427.88,-1030 421.88,-1030 415.88,-1024 415.88,-1018 415.88,-1018 415.88,-1006 415.88,-1006 415.88,-1000 421.88,-994 427.88,-994 427.88,-994 470.12,-994 470.12,-994 476.12,-994 482.12,-1000 482.12,-1006 482.12,-1006 482.12,-1018 482.12,-1018 482.12,-1024 476.12,-1030 470.12,-1030"/>
<text xml:space="preserve" text-anchor="middle" x="449" y="-1008.5" font-family="Helvetica,sans-Serif" font-size="10.00">passphrase</text>
</g>
<!-- argon -->
<g id="node2" class="node">
<title>argon</title>
<path fill="#f6c667" stroke="#444444" stroke-width="1.1" d="M529,-957C529,-957 369,-957 369,-957 363,-957 357,-951 357,-945 357,-945 357,-925 357,-925 357,-919 363,-913 369,-913 369,-913 529,-913 529,-913 535,-913 541,-919 541,-925 541,-925 541,-945 541,-945 541,-951 535,-957 529,-957"/>
<text xml:space="preserve" text-anchor="middle" x="449" y="-943.5" font-family="Helvetica,sans-Serif" font-size="10.00">Argon2id KDF</text>
<text xml:space="preserve" text-anchor="middle" x="449" y="-931.5" font-family="Helvetica,sans-Serif" font-size="10.00">RFC 9106 · m=64 MiB, t=25, p=4</text>
<text xml:space="preserve" text-anchor="middle" x="449" y="-919.5" font-family="Helvetica,sans-Serif" font-size="10.00">salt + params from header → 96 bytes</text>
</g>
<!-- pass&#45;&gt;argon -->
<g id="edge1" class="edge">
<title>pass&#45;&gt;argon</title>
<path fill="none" stroke="#555555" d="M449,-993.6C449,-986.17 449,-977.23 449,-968.64"/>
<polygon fill="#555555" stroke="#555555" points="452.5,-968.83 449,-958.83 445.5,-968.83 452.5,-968.83"/>
</g>
<!-- hkdf -->
<g id="node3" class="node">
<title>hkdf</title>
<path fill="#8fd18f" stroke="#444444" stroke-width="1.1" d="M536.5,-856.5C536.5,-856.5 361.5,-856.5 361.5,-856.5 355.5,-856.5 349.5,-850.5 349.5,-844.5 349.5,-844.5 349.5,-812.5 349.5,-812.5 349.5,-806.5 355.5,-800.5 361.5,-800.5 361.5,-800.5 536.5,-800.5 536.5,-800.5 542.5,-800.5 548.5,-806.5 548.5,-812.5 548.5,-812.5 548.5,-844.5 548.5,-844.5 548.5,-850.5 542.5,-856.5 536.5,-856.5"/>
<text xml:space="preserve" text-anchor="middle" x="449" y="-843" font-family="Helvetica,sans-Serif" font-size="10.00">HKDF&#45;SHA256 (RFC 5869)</text>
<text xml:space="preserve" text-anchor="middle" x="449" y="-831" font-family="Helvetica,sans-Serif" font-size="10.00">salt = hkdf_salt (32B, header)</text>
<text xml:space="preserve" text-anchor="middle" x="449" y="-819" font-family="Helvetica,sans-Serif" font-size="10.00">ikm = Argon2id output (96B)</text>
<text xml:space="preserve" text-anchor="middle" x="449" y="-807" font-family="Helvetica,sans-Serif" font-size="10.00">info = &quot;gabbro&#45;vault&#45;key&#45;from&#45;argon2id&#45;v1&quot;</text>
</g>
<!-- argon&#45;&gt;hkdf -->
<g id="edge2" class="edge">
<title>argon&#45;&gt;hkdf</title>
<path fill="none" stroke="#555555" d="M449,-912.6C449,-899.75 449,-883.03 449,-867.95"/>
<polygon fill="#555555" stroke="#555555" points="452.5,-868.35 449,-858.35 445.5,-868.35 452.5,-868.35"/>
</g>
<!-- ik -->
<g id="node4" class="node">
<title>ik</title>
<path fill="#8fd18f" stroke="#444444" stroke-width="1.1" d="M494.12,-763.5C494.12,-763.5 403.88,-763.5 403.88,-763.5 397.88,-763.5 391.88,-757.5 391.88,-751.5 391.88,-751.5 391.88,-739.5 391.88,-739.5 391.88,-733.5 397.88,-727.5 403.88,-727.5 403.88,-727.5 494.12,-727.5 494.12,-727.5 500.12,-727.5 506.12,-733.5 506.12,-739.5 506.12,-739.5 506.12,-751.5 506.12,-751.5 506.12,-757.5 500.12,-763.5 494.12,-763.5"/>
<text xml:space="preserve" text-anchor="middle" x="449" y="-742" font-family="Helvetica,sans-Serif" font-size="10.00">intermediate key (32B)</text>
</g>
<!-- hkdf&#45;&gt;ik -->
<g id="edge3" class="edge">
<title>hkdf&#45;&gt;ik</title>
<path fill="none" stroke="#555555" d="M449,-800.08C449,-792.15 449,-783.48 449,-775.47"/>
<polygon fill="#555555" stroke="#555555" points="452.5,-775.5 449,-765.5 445.5,-775.5 452.5,-775.5"/>
</g>
<!-- vk_pp -->
<g id="node5" class="node">
<title>vk_pp</title>
<path fill="#cfe0f5" stroke="#444444" stroke-width="1.1" d="M613.88,-315C613.88,-315 498.12,-315 498.12,-315 492.12,-315 486.12,-309 486.12,-303 486.12,-303 486.12,-291 486.12,-291 486.12,-285 492.12,-279 498.12,-279 498.12,-279 613.88,-279 613.88,-279 619.88,-279 625.88,-285 625.88,-291 625.88,-291 625.88,-303 625.88,-303 625.88,-309 619.88,-315 613.88,-315"/>
<text xml:space="preserve" text-anchor="middle" x="556" y="-293.5" font-family="Helvetica,sans-Serif" font-size="10.00">vault key = intermediate key</text>
</g>
<!-- ik&#45;&gt;vk_pp -->
<g id="edge4" class="edge">
<title>ik&#45;&gt;vk_pp</title>
<path fill="none" stroke="#555555" d="M474.21,-726.98C496.67,-709.1 526,-679.12 526,-644.5 526,-644.5 526,-644.5 526,-402 526,-375.36 535.2,-346.34 543.41,-325.74"/>
<polygon fill="#555555" stroke="#555555" points="546.59,-327.2 547.22,-316.62 540.13,-324.5 546.59,-327.2"/>
<text xml:space="preserve" text-anchor="middle" x="550.38" y="-525.95" font-family="Helvetica,sans-Serif" font-size="9.00"> no YubiKey</text>
</g>
<!-- pblob -->
<g id="node7" class="node">
<title>pblob</title>
<path fill="#ebd2f0" stroke="#444444" stroke-width="1.1" d="M394,-661.5C394,-661.5 204,-661.5 204,-661.5 198,-661.5 192,-655.5 192,-649.5 192,-649.5 192,-637.5 192,-637.5 192,-631.5 198,-625.5 204,-625.5 204,-625.5 394,-625.5 394,-625.5 400,-625.5 406,-631.5 406,-637.5 406,-637.5 406,-649.5 406,-649.5 406,-655.5 400,-661.5 394,-661.5"/>
<text xml:space="preserve" text-anchor="middle" x="299" y="-646" font-family="Helvetica,sans-Serif" font-size="10.00">passphrase_blob</text>
<text xml:space="preserve" text-anchor="middle" x="299" y="-634" font-family="Helvetica,sans-Serif" font-size="10.00">= AES&#45;GCM(intermediate key, wrapping_key)</text>
</g>
<!-- ik&#45;&gt;pblob -->
<g id="edge6" class="edge">
<title>ik&#45;&gt;pblob</title>
<path fill="none" stroke="#555555" d="M422.87,-727.08C398.43,-710.78 361.71,-686.31 334.6,-668.23"/>
<polygon fill="#555555" stroke="#555555" points="336.6,-665.36 326.34,-662.73 332.72,-671.19 336.6,-665.36"/>
<text xml:space="preserve" text-anchor="middle" x="428.07" y="-700.95" font-family="Helvetica,sans-Serif" font-size="9.00"> unlock: decrypt</text>
</g>
<!-- aes_pp -->
<g id="node6" class="node">
<title>aes_pp</title>
<path fill="#9cc2ee" stroke="#444444" stroke-width="1.1" d="M611.75,-242C611.75,-242 498.25,-242 498.25,-242 492.25,-242 486.25,-236 486.25,-230 486.25,-230 486.25,-210 486.25,-210 486.25,-204 492.25,-198 498.25,-198 498.25,-198 611.75,-198 611.75,-198 617.75,-198 623.75,-204 623.75,-210 623.75,-210 623.75,-230 623.75,-230 623.75,-236 617.75,-242 611.75,-242"/>
<text xml:space="preserve" text-anchor="middle" x="555" y="-228.5" font-family="Helvetica,sans-Serif" font-size="10.00">AES&#45;256&#45;GCM</text>
<text xml:space="preserve" text-anchor="middle" x="555" y="-216.5" font-family="Helvetica,sans-Serif" font-size="10.00">encrypt / decrypt vault body</text>
<text xml:space="preserve" text-anchor="middle" x="555" y="-204.5" font-family="Helvetica,sans-Serif" font-size="10.00">AAD = plaintext header</text>
</g>
<!-- vk_pp&#45;&gt;aes_pp -->
<g id="edge5" class="edge">
<title>vk_pp&#45;&gt;aes_pp</title>
<path fill="none" stroke="#555555" d="M555.77,-278.6C555.67,-271.17 555.55,-262.23 555.44,-253.64"/>
<polygon fill="#555555" stroke="#555555" points="558.94,-253.78 555.3,-243.83 551.94,-253.88 558.94,-253.78"/>
</g>
<!-- body -->
<g id="node14" class="node">
<title>body</title>
<polygon fill="#ececec" stroke="#444444" stroke-width="1.1" points="597.75,-161 382.25,-161 382.25,-117 603.75,-117 603.75,-155 597.75,-161"/>
<polyline fill="none" stroke="#444444" stroke-width="1.1" points="597.75,-161 597.75,-155"/>
<polyline fill="none" stroke="#444444" stroke-width="1.1" points="603.75,-155 597.75,-155"/>
<text xml:space="preserve" text-anchor="middle" x="493" y="-147.5" font-family="Helvetica,sans-Serif" font-size="10.00">sealed .gabbro file</text>
<text xml:space="preserve" text-anchor="middle" x="493" y="-135.5" font-family="Helvetica,sans-Serif" font-size="10.00">plaintext header + body (ciphertext + GCM tag)</text>
<text xml:space="preserve" text-anchor="middle" x="493" y="-123.5" font-family="Helvetica,sans-Serif" font-size="10.00">0600, atomic temp+rename, symlink&#45;rejected</text>
</g>
<!-- aes_pp&#45;&gt;body -->
<g id="edge13" class="edge">
<title>aes_pp&#45;&gt;body</title>
<path fill="none" stroke="#555555" d="M538.39,-197.83C531.77,-189.4 524.03,-179.53 516.83,-170.36"/>
<polygon fill="#555555" stroke="#555555" points="519.74,-168.4 510.81,-162.69 514.23,-172.72 519.74,-168.4"/>
</g>
<!-- wrap -->
<g id="node8" class="node">
<title>wrap</title>
<path fill="#e0bee8" stroke="#444444" stroke-width="1.1" d="M274.75,-588.5C274.75,-588.5 149.25,-588.5 149.25,-588.5 143.25,-588.5 137.25,-582.5 137.25,-576.5 137.25,-576.5 137.25,-564.5 137.25,-564.5 137.25,-558.5 143.25,-552.5 149.25,-552.5 149.25,-552.5 274.75,-552.5 274.75,-552.5 280.75,-552.5 286.75,-558.5 286.75,-564.5 286.75,-564.5 286.75,-576.5 286.75,-576.5 286.75,-582.5 280.75,-588.5 274.75,-588.5"/>
<text xml:space="preserve" text-anchor="middle" x="212" y="-567" font-family="Helvetica,sans-Serif" font-size="10.00">wrapping_key (random, stable)</text>
</g>
<!-- pblob&#45;&gt;wrap -->
<g id="edge7" class="edge">
<title>pblob&#45;&gt;wrap</title>
<path fill="none" stroke="#555555" d="M277.94,-625.31C267.2,-616.55 253.95,-605.73 242.15,-596.1"/>
<polygon fill="#555555" stroke="#555555" points="244.6,-593.59 234.64,-589.98 240.18,-599.01 244.6,-593.59"/>
</g>
<!-- combine -->
<g id="node10" class="node">
<title>combine</title>
<path fill="#e0bee8" stroke="#444444" stroke-width="1.1" d="M433.62,-506C433.62,-506 280.38,-506 280.38,-506 274.38,-506 268.38,-500 268.38,-494 268.38,-494 268.38,-474 268.38,-474 268.38,-468 274.38,-462 280.38,-462 280.38,-462 433.62,-462 433.62,-462 439.62,-462 445.62,-468 445.62,-474 445.62,-474 445.62,-494 445.62,-494 445.62,-500 439.62,-506 433.62,-506"/>
<text xml:space="preserve" text-anchor="middle" x="357" y="-492.5" font-family="Helvetica,sans-Serif" font-size="10.00">combine_yubikey(</text>
<text xml:space="preserve" text-anchor="middle" x="357" y="-480.5" font-family="Helvetica,sans-Serif" font-size="10.00">wrapping_key, hmac_secret_i, salt_i)</text>
<text xml:space="preserve" text-anchor="middle" x="357" y="-468.5" font-family="Helvetica,sans-Serif" font-size="10.00">info = &quot;gabbro&#45;yubikey&#45;v1&quot;</text>
</g>
<!-- wrap&#45;&gt;combine -->
<g id="edge8" class="edge">
<title>wrap&#45;&gt;combine</title>
<path fill="none" stroke="#555555" d="M242.04,-551.99C261.77,-540.5 287.97,-525.23 310.38,-512.17"/>
<polygon fill="#555555" stroke="#555555" points="311.86,-515.36 318.73,-507.3 308.33,-509.31 311.86,-515.36"/>
</g>
<!-- yk_hw -->
<g id="node9" class="node">
<title>yk_hw</title>
<path fill="#f5b7b1" stroke="#444444" stroke-width="1.1" d="M449.5,-588.5C449.5,-588.5 316.5,-588.5 316.5,-588.5 310.5,-588.5 304.5,-582.5 304.5,-576.5 304.5,-576.5 304.5,-564.5 304.5,-564.5 304.5,-558.5 310.5,-552.5 316.5,-552.5 316.5,-552.5 449.5,-552.5 449.5,-552.5 455.5,-552.5 461.5,-558.5 461.5,-564.5 461.5,-564.5 461.5,-576.5 461.5,-576.5 461.5,-582.5 455.5,-588.5 449.5,-588.5"/>
<text xml:space="preserve" text-anchor="middle" x="383" y="-573" font-family="Helvetica,sans-Serif" font-size="10.00">YubiKey FIDO2</text>
<text xml:space="preserve" text-anchor="middle" x="383" y="-561" font-family="Helvetica,sans-Serif" font-size="10.00">hmac&#45;secret (per registered key)</text>
</g>
<!-- yk_hw&#45;&gt;combine -->
<g id="edge9" class="edge">
<title>yk_hw&#45;&gt;combine</title>
<path fill="none" stroke="#555555" d="M377.61,-551.99C374.52,-541.95 370.55,-529.04 366.92,-517.23"/>
<polygon fill="#555555" stroke="#555555" points="370.31,-516.36 364.02,-507.83 363.62,-518.42 370.31,-516.36"/>
<text xml:space="preserve" text-anchor="middle" x="402.68" y="-525.95" font-family="Helvetica,sans-Serif" font-size="9.00"> hmac_secret_i</text>
</g>
<!-- kblob -->
<g id="node11" class="node">
<title>kblob</title>
<path fill="#ebd2f0" stroke="#444444" stroke-width="1.1" d="M449.75,-425C449.75,-425 264.25,-425 264.25,-425 258.25,-425 252.25,-419 252.25,-413 252.25,-413 252.25,-393 252.25,-393 252.25,-387 258.25,-381 264.25,-381 264.25,-381 449.75,-381 449.75,-381 455.75,-381 461.75,-387 461.75,-393 461.75,-393 461.75,-413 461.75,-413 461.75,-419 455.75,-425 449.75,-425"/>
<text xml:space="preserve" text-anchor="middle" x="357" y="-411.5" font-family="Helvetica,sans-Serif" font-size="10.00">key_blob_i</text>
<text xml:space="preserve" text-anchor="middle" x="357" y="-399.5" font-family="Helvetica,sans-Serif" font-size="10.00">= AES&#45;GCM(combined_i, vault_key_master)</text>
<text xml:space="preserve" text-anchor="middle" x="357" y="-387.5" font-family="Helvetica,sans-Serif" font-size="10.00">one per registered key (2–4)</text>
</g>
<!-- combine&#45;&gt;kblob -->
<g id="edge10" class="edge">
<title>combine&#45;&gt;kblob</title>
<path fill="none" stroke="#555555" d="M357,-461.83C357,-454.19 357,-445.37 357,-436.96"/>
<polygon fill="#555555" stroke="#555555" points="360.5,-437.02 357,-427.02 353.5,-437.02 360.5,-437.02"/>
</g>
<!-- vkm -->
<g id="node12" class="node">
<title>vkm</title>
<path fill="#d9a7e3" stroke="#444444" stroke-width="1.1" d="M432.25,-315C432.25,-315 321.75,-315 321.75,-315 315.75,-315 309.75,-309 309.75,-303 309.75,-303 309.75,-291 309.75,-291 309.75,-285 315.75,-279 321.75,-279 321.75,-279 432.25,-279 432.25,-279 438.25,-279 444.25,-285 444.25,-291 444.25,-291 444.25,-303 444.25,-303 444.25,-309 438.25,-315 432.25,-315"/>
<text xml:space="preserve" text-anchor="middle" x="377" y="-293.5" font-family="Helvetica,sans-Serif" font-size="10.00">vault_key_master (random)</text>
</g>
<!-- kblob&#45;&gt;vkm -->
<g id="edge11" class="edge">
<title>kblob&#45;&gt;vkm</title>
<path fill="none" stroke="#555555" d="M361.14,-380.45C364.16,-364.79 368.26,-343.44 371.54,-326.38"/>
<polygon fill="#555555" stroke="#555555" points="374.92,-327.36 373.37,-316.88 368.04,-326.03 374.92,-327.36"/>
<text xml:space="preserve" text-anchor="middle" x="398.28" y="-354.45" font-family="Helvetica,sans-Serif" font-size="9.00"> unlock: decrypt</text>
</g>
<!-- aes_yk -->
<g id="node13" class="node">
<title>aes_yk</title>
<path fill="#9cc2ee" stroke="#444444" stroke-width="1.1" d="M446.75,-242C446.75,-242 333.25,-242 333.25,-242 327.25,-242 321.25,-236 321.25,-230 321.25,-230 321.25,-210 321.25,-210 321.25,-204 327.25,-198 333.25,-198 333.25,-198 446.75,-198 446.75,-198 452.75,-198 458.75,-204 458.75,-210 458.75,-210 458.75,-230 458.75,-230 458.75,-236 452.75,-242 446.75,-242"/>
<text xml:space="preserve" text-anchor="middle" x="390" y="-228.5" font-family="Helvetica,sans-Serif" font-size="10.00">AES&#45;256&#45;GCM</text>
<text xml:space="preserve" text-anchor="middle" x="390" y="-216.5" font-family="Helvetica,sans-Serif" font-size="10.00">encrypt / decrypt vault body</text>
<text xml:space="preserve" text-anchor="middle" x="390" y="-204.5" font-family="Helvetica,sans-Serif" font-size="10.00">AAD = plaintext header</text>
</g>
<!-- vkm&#45;&gt;aes_yk -->
<g id="edge12" class="edge">
<title>vkm&#45;&gt;aes_yk</title>
<path fill="none" stroke="#555555" d="M380.02,-278.6C381.3,-271.17 382.85,-262.23 384.34,-253.64"/>
<polygon fill="#555555" stroke="#555555" points="387.79,-254.26 386.05,-243.81 380.89,-253.06 387.79,-254.26"/>
</g>
<!-- aes_yk&#45;&gt;body -->
<g id="edge14" class="edge">
<title>aes_yk&#45;&gt;body</title>
<path fill="none" stroke="#555555" d="M417.87,-197.62C429.67,-188.58 443.57,-177.91 456.19,-168.23"/>
<polygon fill="#555555" stroke="#555555" points="458.1,-171.18 463.9,-162.32 453.84,-165.63 458.1,-171.18"/>
</g>
<!-- note_aad -->
<g id="node15" class="node">
<title>note_aad</title>
<polygon fill="#fff7d6" stroke="#b08900" stroke-width="1.1" points="310,-68 0,-68 0,-12 316,-12 316,-62 310,-68"/>
<polyline fill="none" stroke="#b08900" stroke-width="1.1" points="310,-68 310,-62"/>
<polyline fill="none" stroke="#b08900" stroke-width="1.1" points="316,-62 310,-62"/>
<text xml:space="preserve" text-anchor="middle" x="158" y="-54.5" font-family="Helvetica,sans-Serif" font-size="10.00">VERSION 7+ header integrity: the entire plaintext header</text>
<text xml:space="preserve" text-anchor="middle" x="158" y="-42.5" font-family="Helvetica,sans-Serif" font-size="10.00">— Argon2 params, salts, YubiKey records, alias, passphrase_blob —</text>
<text xml:space="preserve" text-anchor="middle" x="158" y="-30.5" font-family="Helvetica,sans-Serif" font-size="10.00">is the AES&#45;GCM AAD. Any header tamper</text>
<text xml:space="preserve" text-anchor="middle" x="158" y="-18.5" font-family="Helvetica,sans-Serif" font-size="10.00">makes body decryption fail.</text>
</g>
<!-- body&#45;&gt;note_aad -->
<!-- note_v11 -->
<g id="node16" class="node">
<title>note_v11</title>
<polygon fill="#fff7d6" stroke="#b08900" stroke-width="1.1" points="646.12,-80 333.88,-80 333.88,0 652.12,0 652.12,-74 646.12,-80"/>
<polyline fill="none" stroke="#b08900" stroke-width="1.1" points="646.12,-80 646.12,-74"/>
<polyline fill="none" stroke="#b08900" stroke-width="1.1" points="652.12,-74 646.12,-74"/>
<text xml:space="preserve" text-anchor="middle" x="493" y="-66.5" font-family="Helvetica,sans-Serif" font-size="10.00">VERSION 11 (ADR&#45;018): the vault key is derived straight from</text>
<text xml:space="preserve" text-anchor="middle" x="493" y="-54.5" font-family="Helvetica,sans-Serif" font-size="10.00">the Argon2id output via HKDF, removing the X25519 + ML&#45;KEM&#45;1024</text>
<text xml:space="preserve" text-anchor="middle" x="493" y="-42.5" font-family="Helvetica,sans-Serif" font-size="10.00">hybrid key exchange (it was non&#45;load&#45;bearing — both keypairs</text>
<text xml:space="preserve" text-anchor="middle" x="493" y="-30.5" font-family="Helvetica,sans-Serif" font-size="10.00">derived from the passphrase). RT&#45;3 deleted that layer and both</text>
<text xml:space="preserve" text-anchor="middle" x="493" y="-18.5" font-family="Helvetica,sans-Serif" font-size="10.00">crates: v11 is the oldest readable format, and a v2–v10 vault is</text>
<text xml:space="preserve" text-anchor="middle" x="493" y="-6.5" font-family="Helvetica,sans-Serif" font-size="10.00">refused intact (see VAULT_UPGRADE_PATH.md).</text>
</g>
<!-- body&#45;&gt;note_v11 -->
<!-- note_pp -->
<g id="node17" class="node">
<title>note_pp</title>
<polygon fill="#fff7d6" stroke="#b08900" stroke-width="1.1" points="939.38,-68 670.62,-68 670.62,-12 945.38,-12 945.38,-62 939.38,-68"/>
<polyline fill="none" stroke="#b08900" stroke-width="1.1" points="939.38,-68 939.38,-62"/>
<polyline fill="none" stroke="#b08900" stroke-width="1.1" points="945.38,-62 939.38,-62"/>
<text xml:space="preserve" text-anchor="middle" x="808" y="-54.5" font-family="Helvetica,sans-Serif" font-size="10.00">Passphrase change re&#45;runs Argon2id + HKDF and re&#45;wraps</text>
<text xml:space="preserve" text-anchor="middle" x="808" y="-42.5" font-family="Helvetica,sans-Serif" font-size="10.00">wrapping_key into a new passphrase_blob; key_blobs and</text>
<text xml:space="preserve" text-anchor="middle" x="808" y="-30.5" font-family="Helvetica,sans-Serif" font-size="10.00">the vault body are unchanged (any one key still opens).</text>
<text xml:space="preserve" text-anchor="middle" x="808" y="-18.5" font-family="Helvetica,sans-Serif" font-size="10.00">YubiKey slots keep the &quot;…&#45;v1&quot; combiner.</text>
</g>
<!-- body&#45;&gt;note_pp -->
</g>
</svg>
