<?xml version="1.0" encoding="UTF-8" standalone="no"?>
<!DOCTYPE svg PUBLIC "-//W3C//DTD SVG 1.1//EN"
 "http://www.w3.org/Graphics/SVG/1.1/DTD/svg11.dtd">
<!-- Generated by graphviz version 14.1.5 (0)
 -->
<!-- Title: gabbro_crypto_stack Pages: 1 -->
<svg width="920pt" height="1302pt"
 viewBox="0.00 0.00 920.00 1302.00" xmlns="http://www.w3.org/2000/svg" xmlns:xlink="http://www.w3.org/1999/xlink">
<g id="graph0" class="graph" transform="scale(1 1) rotate(0) translate(4 1297.5)">
<title>gabbro_crypto_stack</title>
<polygon fill="white" stroke="none" points="-4,4 -4,-1297.5 915.62,-1297.5 915.62,4 -4,4"/>
<text xml:space="preserve" text-anchor="start" x="308.44" y="-1277.2" font-family="Helvetica,sans-Serif" font-weight="bold" font-size="14.00">Gabbro crypto stack · file&#45;format VERSION 10</text>
<text xml:space="preserve" text-anchor="start" x="208.69" y="-1267" font-family="Helvetica,sans-Serif" font-size="10.00">passphrase → Argon2id → X25519 + ML&#45;KEM&#45;1024 → HKDF&#45;SHA256 → AES&#45;256&#45;GCM (header bound as AAD)</text>
<g id="clust1" class="cluster">
<title>cluster_kdf</title>
<path fill="white" stroke="#b08900" stroke-dasharray="5,2" d="M265.88,-1006C265.88,-1006 671.88,-1006 671.88,-1006 677.88,-1006 683.88,-1012 683.88,-1018 683.88,-1018 683.88,-1241.5 683.88,-1241.5 683.88,-1247.5 677.88,-1253.5 671.88,-1253.5 671.88,-1253.5 265.88,-1253.5 265.88,-1253.5 259.88,-1253.5 253.88,-1247.5 253.88,-1241.5 253.88,-1241.5 253.88,-1018 253.88,-1018 253.88,-1012 259.88,-1006 265.88,-1006"/>
<text xml:space="preserve" text-anchor="middle" x="468.88" y="-1239.05" font-family="Helvetica,sans-Serif" font-size="11.00">Key derivation (from passphrase)</text>
</g>
<g id="clust2" class="cluster">
<title>cluster_kex</title>
<path fill="white" stroke="#3c8c3c" stroke-dasharray="5,2" d="M347.88,-730.75C347.88,-730.75 616.88,-730.75 616.88,-730.75 622.88,-730.75 628.88,-736.75 628.88,-742.75 628.88,-742.75 628.88,-975 628.88,-975 628.88,-981 622.88,-987 616.88,-987 616.88,-987 347.88,-987 347.88,-987 341.88,-987 335.88,-981 335.88,-975 335.88,-975 335.88,-742.75 335.88,-742.75 335.88,-736.75 341.88,-730.75 347.88,-730.75"/>
<text xml:space="preserve" text-anchor="middle" x="482.38" y="-972.55" font-family="Helvetica,sans-Serif" font-size="11.00">Hybrid post&#45;quantum key exchange</text>
</g>
<g id="clust3" class="cluster">
<title>cluster_pp</title>
<path fill="white" stroke="#3f72b0" stroke-dasharray="5,2" d="M467.88,-178C467.88,-178 645.88,-178 645.88,-178 651.88,-178 657.88,-184 657.88,-190 657.88,-190 657.88,-423.75 657.88,-423.75 657.88,-429.75 651.88,-435.75 645.88,-435.75 645.88,-435.75 467.88,-435.75 467.88,-435.75 461.88,-435.75 455.88,-429.75 455.88,-423.75 455.88,-423.75 455.88,-190 455.88,-190 455.88,-184 461.88,-178 467.88,-178"/>
<text xml:space="preserve" text-anchor="middle" x="556.88" y="-421.3" font-family="Helvetica,sans-Serif" font-size="11.00">Vault type A — passphrase only</text>
</g>
<g id="clust4" class="cluster">
<title>cluster_yk</title>
<path fill="white" stroke="#9b59b6" stroke-dasharray="5,2" d="M118.88,-178C118.88,-178 435.88,-178 435.88,-178 441.88,-178 447.88,-184 447.88,-190 447.88,-190 447.88,-679.75 447.88,-679.75 447.88,-685.75 441.88,-691.75 435.88,-691.75 435.88,-691.75 118.88,-691.75 118.88,-691.75 112.88,-691.75 106.88,-685.75 106.88,-679.75 106.88,-679.75 106.88,-190 106.88,-190 106.88,-184 112.88,-178 118.88,-178"/>
<text xml:space="preserve" text-anchor="middle" x="277.38" y="-677.3" font-family="Helvetica,sans-Serif" font-size="11.00">Vault type B — passphrase + 2–4 YubiKeys (multi&#45;key)</text>
</g>
<!-- pass -->
<g id="node1" class="node">
<title>pass</title>
<path fill="#fde9c8" stroke="#444444" stroke-width="1.1" d="M495,-1224C495,-1224 452.75,-1224 452.75,-1224 446.75,-1224 440.75,-1218 440.75,-1212 440.75,-1212 440.75,-1200 440.75,-1200 440.75,-1194 446.75,-1188 452.75,-1188 452.75,-1188 495,-1188 495,-1188 501,-1188 507,-1194 507,-1200 507,-1200 507,-1212 507,-1212 507,-1218 501,-1224 495,-1224"/>
<text xml:space="preserve" text-anchor="middle" x="473.88" y="-1202.5" font-family="Helvetica,sans-Serif" font-size="10.00">passphrase</text>
</g>
<!-- argon -->
<g id="node2" class="node">
<title>argon</title>
<path fill="#f6c667" stroke="#444444" stroke-width="1.1" d="M553.88,-1151C553.88,-1151 393.88,-1151 393.88,-1151 387.88,-1151 381.88,-1145 381.88,-1139 381.88,-1139 381.88,-1119 381.88,-1119 381.88,-1113 387.88,-1107 393.88,-1107 393.88,-1107 553.88,-1107 553.88,-1107 559.88,-1107 565.88,-1113 565.88,-1119 565.88,-1119 565.88,-1139 565.88,-1139 565.88,-1145 559.88,-1151 553.88,-1151"/>
<text xml:space="preserve" text-anchor="middle" x="473.88" y="-1137.5" font-family="Helvetica,sans-Serif" font-size="10.00">Argon2id KDF</text>
<text xml:space="preserve" text-anchor="middle" x="473.88" y="-1125.5" font-family="Helvetica,sans-Serif" font-size="10.00">RFC 9106 · m=64 MiB, t=25, p=4</text>
<text xml:space="preserve" text-anchor="middle" x="473.88" y="-1113.5" font-family="Helvetica,sans-Serif" font-size="10.00">salt + params from header → 96 bytes</text>
</g>
<!-- pass&#45;&gt;argon -->
<g id="edge1" class="edge">
<title>pass&#45;&gt;argon</title>
<path fill="none" stroke="#555555" d="M473.88,-1187.6C473.88,-1180.17 473.88,-1171.23 473.88,-1162.64"/>
<polygon fill="#555555" stroke="#555555" points="477.38,-1162.83 473.88,-1152.83 470.38,-1162.83 477.38,-1162.83"/>
</g>
<!-- seedx -->
<g id="node3" class="node">
<title>seedx</title>
<path fill="#fbe3a1" stroke="#444444" stroke-width="1.1" d="M459.62,-1070C459.62,-1070 274.12,-1070 274.12,-1070 268.12,-1070 262.12,-1064 262.12,-1058 262.12,-1058 262.12,-1026 262.12,-1026 262.12,-1020 268.12,-1014 274.12,-1014 274.12,-1014 459.62,-1014 459.62,-1014 465.62,-1014 471.62,-1020 471.62,-1026 471.62,-1026 471.62,-1058 471.62,-1058 471.62,-1064 465.62,-1070 459.62,-1070"/>
<text xml:space="preserve" text-anchor="middle" x="366.88" y="-1056.5" font-family="Helvetica,sans-Serif" font-size="10.00">bytes 0–31</text>
<text xml:space="preserve" text-anchor="middle" x="366.88" y="-1044.5" font-family="Helvetica,sans-Serif" font-size="10.00">X25519 secret scalar</text>
<text xml:space="preserve" text-anchor="middle" x="366.88" y="-1032.5" font-family="Helvetica,sans-Serif" font-size="10.00">(VERSION 10+: used directly, clamp at DH;</text>
<text xml:space="preserve" text-anchor="middle" x="366.88" y="-1020.5" font-family="Helvetica,sans-Serif" font-size="10.00">VERSION 2–9: via StdRng — legacy)</text>
</g>
<!-- argon&#45;&gt;seedx -->
<g id="edge2" class="edge">
<title>argon&#45;&gt;seedx</title>
<path fill="none" stroke="#555555" d="M446.87,-1106.55C435.72,-1097.69 422.5,-1087.19 410.06,-1077.3"/>
<polygon fill="#555555" stroke="#555555" points="412.36,-1074.67 402.36,-1071.19 408.01,-1080.15 412.36,-1074.67"/>
</g>
<!-- seedk -->
<g id="node4" class="node">
<title>seedk</title>
<path fill="#fbe3a1" stroke="#444444" stroke-width="1.1" d="M664,-1064.38C664,-1064.38 501.75,-1064.38 501.75,-1064.38 495.75,-1064.38 489.75,-1058.38 489.75,-1052.38 489.75,-1052.38 489.75,-1031.62 489.75,-1031.62 489.75,-1025.62 495.75,-1019.62 501.75,-1019.62 501.75,-1019.62 664,-1019.62 664,-1019.62 670,-1019.62 676,-1025.62 676,-1031.62 676,-1031.62 676,-1052.38 676,-1052.38 676,-1058.38 670,-1064.38 664,-1064.38"/>
<text xml:space="preserve" text-anchor="middle" x="582.88" y="-1050.88" font-family="Helvetica,sans-Serif" font-size="10.00">bytes 32–95</text>
<text xml:space="preserve" text-anchor="middle" x="582.88" y="-1038.88" font-family="Helvetica,sans-Serif" font-size="10.00">ML&#45;KEM&#45;1024 &#160;d ∥ z</text>
<text xml:space="preserve" text-anchor="middle" x="582.88" y="-1026.12" font-family="Helvetica,sans-Serif" font-size="10.00">FIPS 203 §7.1 KeyGen (VERSION 6+)</text>
</g>
<!-- argon&#45;&gt;seedk -->
<g id="edge3" class="edge">
<title>argon&#45;&gt;seedk</title>
<path fill="none" stroke="#555555" d="M501.38,-1106.55C514.96,-1095.96 531.53,-1083.04 546.17,-1071.62"/>
<polygon fill="#555555" stroke="#555555" points="548.07,-1074.58 553.81,-1065.67 543.77,-1069.06 548.07,-1074.58"/>
</g>
<!-- x25519 -->
<g id="node6" class="node">
<title>x25519</title>
<path fill="#bfe3c0" stroke="#444444" stroke-width="1.1" d="M462.25,-957.5C462.25,-957.5 355.5,-957.5 355.5,-957.5 349.5,-957.5 343.5,-951.5 343.5,-945.5 343.5,-945.5 343.5,-925.5 343.5,-925.5 343.5,-919.5 349.5,-913.5 355.5,-913.5 355.5,-913.5 462.25,-913.5 462.25,-913.5 468.25,-913.5 474.25,-919.5 474.25,-925.5 474.25,-925.5 474.25,-945.5 474.25,-945.5 474.25,-951.5 468.25,-957.5 462.25,-957.5"/>
<text xml:space="preserve" text-anchor="middle" x="408.88" y="-944" font-family="Helvetica,sans-Serif" font-size="10.00">X25519 (RFC 7748)</text>
<text xml:space="preserve" text-anchor="middle" x="408.88" y="-932" font-family="Helvetica,sans-Serif" font-size="10.00">ephemeral (lock) /</text>
<text xml:space="preserve" text-anchor="middle" x="408.88" y="-920" font-family="Helvetica,sans-Serif" font-size="10.00">reverse (unlock) exchange</text>
</g>
<!-- seedx&#45;&gt;x25519 -->
<g id="edge5" class="edge">
<title>seedx&#45;&gt;x25519</title>
<path fill="none" stroke="#555555" d="M377.91,-1013.54C383.49,-999.67 390.29,-982.75 396.09,-968.31"/>
<polygon fill="#555555" stroke="#555555" points="399.25,-969.82 399.74,-959.24 392.76,-967.21 399.25,-969.82"/>
</g>
<!-- mlkem -->
<g id="node5" class="node">
<title>mlkem</title>
<path fill="#bfe3c0" stroke="#444444" stroke-width="1.1" d="M609.12,-957.5C609.12,-957.5 504.62,-957.5 504.62,-957.5 498.62,-957.5 492.62,-951.5 492.62,-945.5 492.62,-945.5 492.62,-925.5 492.62,-925.5 492.62,-919.5 498.62,-913.5 504.62,-913.5 504.62,-913.5 609.12,-913.5 609.12,-913.5 615.12,-913.5 621.12,-919.5 621.12,-925.5 621.12,-925.5 621.12,-945.5 621.12,-945.5 621.12,-951.5 615.12,-957.5 609.12,-957.5"/>
<text xml:space="preserve" text-anchor="middle" x="556.88" y="-944" font-family="Helvetica,sans-Serif" font-size="10.00">ML&#45;KEM&#45;1024 (FIPS 203)</text>
<text xml:space="preserve" text-anchor="middle" x="556.88" y="-932" font-family="Helvetica,sans-Serif" font-size="10.00">encapsulate (lock) /</text>
<text xml:space="preserve" text-anchor="middle" x="556.88" y="-920" font-family="Helvetica,sans-Serif" font-size="10.00">decapsulate (unlock)</text>
</g>
<!-- seedk&#45;&gt;mlkem -->
<g id="edge4" class="edge">
<title>seedk&#45;&gt;mlkem</title>
<path fill="none" stroke="#555555" d="M577.42,-1019.09C573.79,-1004.51 568.96,-985.09 564.9,-968.75"/>
<polygon fill="#555555" stroke="#555555" points="568.41,-968.35 562.59,-959.49 561.61,-970.04 568.41,-968.35"/>
</g>
<!-- hkdf -->
<g id="node7" class="node">
<title>hkdf</title>
<path fill="#8fd18f" stroke="#444444" stroke-width="1.1" d="M560,-856.5C560,-856.5 403.75,-856.5 403.75,-856.5 397.75,-856.5 391.75,-850.5 391.75,-844.5 391.75,-844.5 391.75,-823.75 391.75,-823.75 391.75,-817.75 397.75,-811.75 403.75,-811.75 403.75,-811.75 560,-811.75 560,-811.75 566,-811.75 572,-817.75 572,-823.75 572,-823.75 572,-844.5 572,-844.5 572,-850.5 566,-856.5 560,-856.5"/>
<text xml:space="preserve" text-anchor="middle" x="481.88" y="-843" font-family="Helvetica,sans-Serif" font-size="10.00">HKDF&#45;SHA256 combiner (RFC 5869)</text>
<text xml:space="preserve" text-anchor="middle" x="481.88" y="-831" font-family="Helvetica,sans-Serif" font-size="10.00">salt = hkdf_salt (32B, header)</text>
<text xml:space="preserve" text-anchor="middle" x="481.88" y="-819" font-family="Helvetica,sans-Serif" font-size="10.00">ikm = ml_kem_ss ∥ x25519_ss</text>
</g>
<!-- mlkem&#45;&gt;hkdf -->
<g id="edge6" class="edge">
<title>mlkem&#45;&gt;hkdf</title>
<path fill="none" stroke="#555555" d="M549.04,-913.01C544.05,-901 536.84,-886.14 527.88,-874.5 525.21,-871.04 522.19,-867.66 519.02,-864.44"/>
<polygon fill="#555555" stroke="#555555" points="521.66,-862.12 511.99,-857.8 516.86,-867.21 521.66,-862.12"/>
<text xml:space="preserve" text-anchor="middle" x="575.71" y="-886.95" font-family="Helvetica,sans-Serif" font-size="9.00"> ss_A + ct_M</text>
<text xml:space="preserve" text-anchor="middle" x="575.71" y="-876.45" font-family="Helvetica,sans-Serif" font-size="9.00"> (ct_M → header)</text>
</g>
<!-- x25519&#45;&gt;hkdf -->
<g id="edge7" class="edge">
<title>x25519&#45;&gt;hkdf</title>
<path fill="none" stroke="#555555" d="M399.26,-913.06C395.34,-900.91 393.22,-885.91 400.38,-874.5 402.8,-870.64 405.71,-867.15 408.98,-864"/>
<polygon fill="#555555" stroke="#555555" points="411.06,-866.82 416.59,-857.79 406.63,-861.4 411.06,-866.82"/>
<text xml:space="preserve" text-anchor="middle" x="464.12" y="-886.95" font-family="Helvetica,sans-Serif" font-size="9.00"> ss_B</text>
<text xml:space="preserve" text-anchor="middle" x="464.12" y="-876.45" font-family="Helvetica,sans-Serif" font-size="9.00"> (ephemeral pubkey → header)</text>
</g>
<!-- ik -->
<g id="node8" class="node">
<title>ik</title>
<path fill="#8fd18f" stroke="#444444" stroke-width="1.1" d="M527,-774.75C527,-774.75 436.75,-774.75 436.75,-774.75 430.75,-774.75 424.75,-768.75 424.75,-762.75 424.75,-762.75 424.75,-750.75 424.75,-750.75 424.75,-744.75 430.75,-738.75 436.75,-738.75 436.75,-738.75 527,-738.75 527,-738.75 533,-738.75 539,-744.75 539,-750.75 539,-750.75 539,-762.75 539,-762.75 539,-768.75 533,-774.75 527,-774.75"/>
<text xml:space="preserve" text-anchor="middle" x="481.88" y="-753.25" font-family="Helvetica,sans-Serif" font-size="10.00">intermediate key (32B)</text>
</g>
<!-- hkdf&#45;&gt;ik -->
<g id="edge8" class="edge">
<title>hkdf&#45;&gt;ik</title>
<path fill="none" stroke="#555555" d="M481.88,-811.32C481.88,-803.61 481.88,-794.81 481.88,-786.61"/>
<polygon fill="#555555" stroke="#555555" points="485.38,-786.72 481.88,-776.72 478.38,-786.72 485.38,-786.72"/>
</g>
<!-- tb -->
<g id="node9" class="node">
<title>tb</title>
<path fill="#cfe0f5" stroke="#444444" stroke-width="1.1" d="M638,-406.25C638,-406.25 475.75,-406.25 475.75,-406.25 469.75,-406.25 463.75,-400.25 463.75,-394.25 463.75,-394.25 463.75,-361.5 463.75,-361.5 463.75,-355.5 469.75,-349.5 475.75,-349.5 475.75,-349.5 638,-349.5 638,-349.5 644,-349.5 650,-355.5 650,-361.5 650,-361.5 650,-394.25 650,-394.25 650,-400.25 644,-406.25 638,-406.25"/>
<text xml:space="preserve" text-anchor="middle" x="556.88" y="-392.75" font-family="Helvetica,sans-Serif" font-size="10.00">info = &quot;gabbro&#45;hybrid&#45;kex&#45;v2&quot;</text>
<text xml:space="preserve" text-anchor="middle" x="556.88" y="-380.75" font-family="Helvetica,sans-Serif" font-size="10.00">∥ ct_M ∥ ephemeral_pub ∥ static_pub</text>
<text xml:space="preserve" text-anchor="middle" x="556.88" y="-368" font-family="Helvetica,sans-Serif" font-size="10.00">(transcript&#45;bound, VERSION 8+;</text>
<text xml:space="preserve" text-anchor="middle" x="556.88" y="-356" font-family="Helvetica,sans-Serif" font-size="10.00">v2–7: &quot;…&#45;v1&quot;, no transcript)</text>
</g>
<!-- ik&#45;&gt;tb -->
<g id="edge9" class="edge">
<title>ik&#45;&gt;tb</title>
<path fill="none" stroke="#555555" d="M490.81,-738.27C500.88,-716.9 515.88,-679.37 515.88,-645.25 515.88,-645.25 515.88,-645.25 515.88,-483.75 515.88,-460.49 524.73,-436.2 534.21,-416.86"/>
<polygon fill="#555555" stroke="#555555" points="537.3,-418.5 538.79,-408.01 531.09,-415.28 537.3,-418.5"/>
<text xml:space="preserve" text-anchor="middle" x="540.25" y="-567.95" font-family="Helvetica,sans-Serif" font-size="9.00"> no YubiKey</text>
</g>
<!-- pblob -->
<g id="node12" class="node">
<title>pblob</title>
<path fill="#ebd2f0" stroke="#444444" stroke-width="1.1" d="M372.88,-662.25C372.88,-662.25 182.88,-662.25 182.88,-662.25 176.88,-662.25 170.88,-656.25 170.88,-650.25 170.88,-650.25 170.88,-638.25 170.88,-638.25 170.88,-632.25 176.88,-626.25 182.88,-626.25 182.88,-626.25 372.88,-626.25 372.88,-626.25 378.88,-626.25 384.88,-632.25 384.88,-638.25 384.88,-638.25 384.88,-650.25 384.88,-650.25 384.88,-656.25 378.88,-662.25 372.88,-662.25"/>
<text xml:space="preserve" text-anchor="middle" x="277.88" y="-646.75" font-family="Helvetica,sans-Serif" font-size="10.00">passphrase_blob</text>
<text xml:space="preserve" text-anchor="middle" x="277.88" y="-634.75" font-family="Helvetica,sans-Serif" font-size="10.00">= AES&#45;GCM(intermediate key, wrapping_key)</text>
</g>
<!-- ik&#45;&gt;pblob -->
<g id="edge12" class="edge">
<title>ik&#45;&gt;pblob</title>
<path fill="none" stroke="#555555" d="M449.55,-738.24C414.49,-719.25 358.38,-688.86 319.91,-668.02"/>
<polygon fill="#555555" stroke="#555555" points="321.84,-665.08 311.38,-663.4 318.5,-671.24 321.84,-665.08"/>
<text xml:space="preserve" text-anchor="middle" x="451.14" y="-712.2" font-family="Helvetica,sans-Serif" font-size="9.00"> combiner &quot;…&#45;v1&quot;</text>
<text xml:space="preserve" text-anchor="middle" x="451.14" y="-701.7" font-family="Helvetica,sans-Serif" font-size="9.00"> unlock: decrypt</text>
</g>
<!-- vk_pp -->
<g id="node10" class="node">
<title>vk_pp</title>
<path fill="#cfe0f5" stroke="#444444" stroke-width="1.1" d="M602.75,-303C602.75,-303 487,-303 487,-303 481,-303 475,-297 475,-291 475,-291 475,-279 475,-279 475,-273 481,-267 487,-267 487,-267 602.75,-267 602.75,-267 608.75,-267 614.75,-273 614.75,-279 614.75,-279 614.75,-291 614.75,-291 614.75,-297 608.75,-303 602.75,-303"/>
<text xml:space="preserve" text-anchor="middle" x="544.88" y="-281.5" font-family="Helvetica,sans-Serif" font-size="10.00">vault key = intermediate key</text>
</g>
<!-- tb&#45;&gt;vk_pp -->
<g id="edge10" class="edge">
<title>tb&#45;&gt;vk_pp</title>
<path fill="none" stroke="#555555" d="M553.21,-349.12C551.76,-338.15 550.1,-325.56 548.64,-314.53"/>
<polygon fill="#555555" stroke="#555555" points="552.14,-314.27 547.36,-304.81 545.2,-315.18 552.14,-314.27"/>
</g>
<!-- aes_pp -->
<g id="node11" class="node">
<title>aes_pp</title>
<path fill="#9cc2ee" stroke="#444444" stroke-width="1.1" d="M595.62,-230C595.62,-230 482.12,-230 482.12,-230 476.12,-230 470.12,-224 470.12,-218 470.12,-218 470.12,-198 470.12,-198 470.12,-192 476.12,-186 482.12,-186 482.12,-186 595.62,-186 595.62,-186 601.62,-186 607.62,-192 607.62,-198 607.62,-198 607.62,-218 607.62,-218 607.62,-224 601.62,-230 595.62,-230"/>
<text xml:space="preserve" text-anchor="middle" x="538.88" y="-216.5" font-family="Helvetica,sans-Serif" font-size="10.00">AES&#45;256&#45;GCM</text>
<text xml:space="preserve" text-anchor="middle" x="538.88" y="-204.5" font-family="Helvetica,sans-Serif" font-size="10.00">encrypt / decrypt vault body</text>
<text xml:space="preserve" text-anchor="middle" x="538.88" y="-192.5" font-family="Helvetica,sans-Serif" font-size="10.00">AAD = plaintext header</text>
</g>
<!-- vk_pp&#45;&gt;aes_pp -->
<g id="edge11" class="edge">
<title>vk_pp&#45;&gt;aes_pp</title>
<path fill="none" stroke="#555555" d="M543.48,-266.6C542.89,-259.17 542.17,-250.23 541.49,-241.64"/>
<polygon fill="#555555" stroke="#555555" points="544.99,-241.51 540.7,-231.83 538.01,-242.07 544.99,-241.51"/>
</g>
<!-- body -->
<g id="node19" class="node">
<title>body</title>
<polygon fill="#ececec" stroke="#444444" stroke-width="1.1" points="579.62,-149 364.12,-149 364.12,-105 585.62,-105 585.62,-143 579.62,-149"/>
<polyline fill="none" stroke="#444444" stroke-width="1.1" points="579.62,-149 579.62,-143"/>
<polyline fill="none" stroke="#444444" stroke-width="1.1" points="585.62,-143 579.62,-143"/>
<text xml:space="preserve" text-anchor="middle" x="474.88" y="-135.5" font-family="Helvetica,sans-Serif" font-size="10.00">sealed .gabbro file</text>
<text xml:space="preserve" text-anchor="middle" x="474.88" y="-123.5" font-family="Helvetica,sans-Serif" font-size="10.00">plaintext header + body (ciphertext + GCM tag)</text>
<text xml:space="preserve" text-anchor="middle" x="474.88" y="-111.5" font-family="Helvetica,sans-Serif" font-size="10.00">0600, atomic temp+rename, symlink&#45;rejected</text>
</g>
<!-- aes_pp&#45;&gt;body -->
<g id="edge19" class="edge">
<title>aes_pp&#45;&gt;body</title>
<path fill="none" stroke="#555555" d="M521.72,-185.83C514.89,-177.4 506.9,-167.53 499.47,-158.36"/>
<polygon fill="#555555" stroke="#555555" points="502.26,-156.25 493.25,-150.68 496.82,-160.65 502.26,-156.25"/>
</g>
<!-- wrap -->
<g id="node13" class="node">
<title>wrap</title>
<path fill="#e0bee8" stroke="#444444" stroke-width="1.1" d="M252.62,-589.25C252.62,-589.25 127.12,-589.25 127.12,-589.25 121.12,-589.25 115.12,-583.25 115.12,-577.25 115.12,-577.25 115.12,-565.25 115.12,-565.25 115.12,-559.25 121.12,-553.25 127.12,-553.25 127.12,-553.25 252.62,-553.25 252.62,-553.25 258.62,-553.25 264.62,-559.25 264.62,-565.25 264.62,-565.25 264.62,-577.25 264.62,-577.25 264.62,-583.25 258.62,-589.25 252.62,-589.25"/>
<text xml:space="preserve" text-anchor="middle" x="189.88" y="-567.75" font-family="Helvetica,sans-Serif" font-size="10.00">wrapping_key (random, stable)</text>
</g>
<!-- pblob&#45;&gt;wrap -->
<g id="edge13" class="edge">
<title>pblob&#45;&gt;wrap</title>
<path fill="none" stroke="#555555" d="M256.57,-626.06C245.71,-617.3 232.3,-606.48 220.37,-596.85"/>
<polygon fill="#555555" stroke="#555555" points="222.75,-594.28 212.77,-590.72 218.36,-599.73 222.75,-594.28"/>
</g>
<!-- combine -->
<g id="node15" class="node">
<title>combine</title>
<path fill="#e0bee8" stroke="#444444" stroke-width="1.1" d="M411.5,-506.75C411.5,-506.75 258.25,-506.75 258.25,-506.75 252.25,-506.75 246.25,-500.75 246.25,-494.75 246.25,-494.75 246.25,-474.75 246.25,-474.75 246.25,-468.75 252.25,-462.75 258.25,-462.75 258.25,-462.75 411.5,-462.75 411.5,-462.75 417.5,-462.75 423.5,-468.75 423.5,-474.75 423.5,-474.75 423.5,-494.75 423.5,-494.75 423.5,-500.75 417.5,-506.75 411.5,-506.75"/>
<text xml:space="preserve" text-anchor="middle" x="334.88" y="-493.25" font-family="Helvetica,sans-Serif" font-size="10.00">combine_yubikey(</text>
<text xml:space="preserve" text-anchor="middle" x="334.88" y="-481.25" font-family="Helvetica,sans-Serif" font-size="10.00">wrapping_key, hmac_secret_i, salt_i)</text>
<text xml:space="preserve" text-anchor="middle" x="334.88" y="-469.25" font-family="Helvetica,sans-Serif" font-size="10.00">info = &quot;gabbro&#45;yubikey&#45;v1&quot;</text>
</g>
<!-- wrap&#45;&gt;combine -->
<g id="edge14" class="edge">
<title>wrap&#45;&gt;combine</title>
<path fill="none" stroke="#555555" d="M219.92,-552.74C239.65,-541.25 265.85,-525.98 288.25,-512.92"/>
<polygon fill="#555555" stroke="#555555" points="289.73,-516.11 296.61,-508.05 286.21,-510.06 289.73,-516.11"/>
</g>
<!-- yk_hw -->
<g id="node14" class="node">
<title>yk_hw</title>
<path fill="#f5b7b1" stroke="#444444" stroke-width="1.1" d="M427.38,-589.25C427.38,-589.25 294.38,-589.25 294.38,-589.25 288.38,-589.25 282.38,-583.25 282.38,-577.25 282.38,-577.25 282.38,-565.25 282.38,-565.25 282.38,-559.25 288.38,-553.25 294.38,-553.25 294.38,-553.25 427.38,-553.25 427.38,-553.25 433.38,-553.25 439.38,-559.25 439.38,-565.25 439.38,-565.25 439.38,-577.25 439.38,-577.25 439.38,-583.25 433.38,-589.25 427.38,-589.25"/>
<text xml:space="preserve" text-anchor="middle" x="360.88" y="-573.75" font-family="Helvetica,sans-Serif" font-size="10.00">YubiKey FIDO2</text>
<text xml:space="preserve" text-anchor="middle" x="360.88" y="-561.75" font-family="Helvetica,sans-Serif" font-size="10.00">hmac&#45;secret (per registered key)</text>
</g>
<!-- yk_hw&#45;&gt;combine -->
<g id="edge15" class="edge">
<title>yk_hw&#45;&gt;combine</title>
<path fill="none" stroke="#555555" d="M355.49,-552.74C352.4,-542.7 348.43,-529.79 344.79,-517.98"/>
<polygon fill="#555555" stroke="#555555" points="348.19,-517.11 341.9,-508.58 341.5,-519.17 348.19,-517.11"/>
<text xml:space="preserve" text-anchor="middle" x="380.56" y="-526.7" font-family="Helvetica,sans-Serif" font-size="9.00"> hmac_secret_i</text>
</g>
<!-- kblob -->
<g id="node16" class="node">
<title>kblob</title>
<path fill="#ebd2f0" stroke="#444444" stroke-width="1.1" d="M427.62,-399.88C427.62,-399.88 242.12,-399.88 242.12,-399.88 236.12,-399.88 230.12,-393.88 230.12,-387.88 230.12,-387.88 230.12,-367.88 230.12,-367.88 230.12,-361.88 236.12,-355.88 242.12,-355.88 242.12,-355.88 427.62,-355.88 427.62,-355.88 433.62,-355.88 439.62,-361.88 439.62,-367.88 439.62,-367.88 439.62,-387.88 439.62,-387.88 439.62,-393.88 433.62,-399.88 427.62,-399.88"/>
<text xml:space="preserve" text-anchor="middle" x="334.88" y="-386.38" font-family="Helvetica,sans-Serif" font-size="10.00">key_blob_i</text>
<text xml:space="preserve" text-anchor="middle" x="334.88" y="-374.38" font-family="Helvetica,sans-Serif" font-size="10.00">= AES&#45;GCM(combined_i, vault_key_master)</text>
<text xml:space="preserve" text-anchor="middle" x="334.88" y="-362.38" font-family="Helvetica,sans-Serif" font-size="10.00">one per registered key (2–4)</text>
</g>
<!-- combine&#45;&gt;kblob -->
<g id="edge16" class="edge">
<title>combine&#45;&gt;kblob</title>
<path fill="none" stroke="#555555" d="M334.88,-462.27C334.88,-447.71 334.88,-428.18 334.88,-411.69"/>
<polygon fill="#555555" stroke="#555555" points="338.38,-411.84 334.88,-401.84 331.38,-411.84 338.38,-411.84"/>
</g>
<!-- vkm -->
<g id="node17" class="node">
<title>vkm</title>
<path fill="#d9a7e3" stroke="#444444" stroke-width="1.1" d="M410.12,-303C410.12,-303 299.62,-303 299.62,-303 293.62,-303 287.62,-297 287.62,-291 287.62,-291 287.62,-279 287.62,-279 287.62,-273 293.62,-267 299.62,-267 299.62,-267 410.12,-267 410.12,-267 416.12,-267 422.12,-273 422.12,-279 422.12,-279 422.12,-291 422.12,-291 422.12,-297 416.12,-303 410.12,-303"/>
<text xml:space="preserve" text-anchor="middle" x="354.88" y="-281.5" font-family="Helvetica,sans-Serif" font-size="10.00">vault_key_master (random)</text>
</g>
<!-- kblob&#45;&gt;vkm -->
<g id="edge17" class="edge">
<title>kblob&#45;&gt;vkm</title>
<path fill="none" stroke="#555555" d="M339.61,-355.34C342.31,-343.08 345.73,-327.57 348.64,-314.34"/>
<polygon fill="#555555" stroke="#555555" points="351.98,-315.42 350.71,-304.9 345.15,-313.92 351.98,-315.42"/>
<text xml:space="preserve" text-anchor="middle" x="378.54" y="-322.95" font-family="Helvetica,sans-Serif" font-size="9.00"> unlock: decrypt</text>
</g>
<!-- aes_yk -->
<g id="node18" class="node">
<title>aes_yk</title>
<path fill="#9cc2ee" stroke="#444444" stroke-width="1.1" d="M424.62,-230C424.62,-230 311.12,-230 311.12,-230 305.12,-230 299.12,-224 299.12,-218 299.12,-218 299.12,-198 299.12,-198 299.12,-192 305.12,-186 311.12,-186 311.12,-186 424.62,-186 424.62,-186 430.62,-186 436.62,-192 436.62,-198 436.62,-198 436.62,-218 436.62,-218 436.62,-224 430.62,-230 424.62,-230"/>
<text xml:space="preserve" text-anchor="middle" x="367.88" y="-216.5" font-family="Helvetica,sans-Serif" font-size="10.00">AES&#45;256&#45;GCM</text>
<text xml:space="preserve" text-anchor="middle" x="367.88" y="-204.5" font-family="Helvetica,sans-Serif" font-size="10.00">encrypt / decrypt vault body</text>
<text xml:space="preserve" text-anchor="middle" x="367.88" y="-192.5" font-family="Helvetica,sans-Serif" font-size="10.00">AAD = plaintext header</text>
</g>
<!-- vkm&#45;&gt;aes_yk -->
<g id="edge18" class="edge">
<title>vkm&#45;&gt;aes_yk</title>
<path fill="none" stroke="#555555" d="M357.89,-266.6C359.18,-259.17 360.73,-250.23 362.22,-241.64"/>
<polygon fill="#555555" stroke="#555555" points="365.66,-242.26 363.92,-231.81 358.77,-241.06 365.66,-242.26"/>
</g>
<!-- aes_yk&#45;&gt;body -->
<g id="edge20" class="edge">
<title>aes_yk&#45;&gt;body</title>
<path fill="none" stroke="#555555" d="M396.83,-185.62C409.08,-176.58 423.53,-165.91 436.64,-156.23"/>
<polygon fill="#555555" stroke="#555555" points="438.71,-159.05 444.68,-150.29 434.55,-153.42 438.71,-159.05"/>
</g>
<!-- note_aad -->
<g id="node20" class="node">
<title>note_aad</title>
<polygon fill="#fff7d6" stroke="#b08900" stroke-width="1.1" points="301.75,-62 0,-62 0,-6 307.75,-6 307.75,-56 301.75,-62"/>
<polyline fill="none" stroke="#b08900" stroke-width="1.1" points="301.75,-62 301.75,-56"/>
<polyline fill="none" stroke="#b08900" stroke-width="1.1" points="307.75,-56 301.75,-56"/>
<text xml:space="preserve" text-anchor="middle" x="153.88" y="-48.5" font-family="Helvetica,sans-Serif" font-size="10.00">VERSION 7+ header integrity: the entire plaintext header</text>
<text xml:space="preserve" text-anchor="middle" x="153.88" y="-36.5" font-family="Helvetica,sans-Serif" font-size="10.00">— Argon2 params, salts, ML&#45;KEM ciphertext, X25519 pubkey,</text>
<text xml:space="preserve" text-anchor="middle" x="153.88" y="-24.5" font-family="Helvetica,sans-Serif" font-size="10.00">YubiKey records, alias, passphrase_blob — is the AES&#45;GCM AAD.</text>
<text xml:space="preserve" text-anchor="middle" x="153.88" y="-12.5" font-family="Helvetica,sans-Serif" font-size="10.00">Any header tamper makes body decryption fail.</text>
</g>
<!-- body&#45;&gt;note_aad -->
<!-- note_v10 -->
<g id="node21" class="node">
<title>note_v10</title>
<polygon fill="#fff7d6" stroke="#b08900" stroke-width="1.1" points="617.88,-68 325.88,-68 325.88,0 623.88,0 623.88,-62 617.88,-68"/>
<polyline fill="none" stroke="#b08900" stroke-width="1.1" points="617.88,-68 617.88,-62"/>
<polyline fill="none" stroke="#b08900" stroke-width="1.1" points="623.88,-62 617.88,-62"/>
<text xml:space="preserve" text-anchor="middle" x="474.88" y="-54.5" font-family="Helvetica,sans-Serif" font-size="10.00">VERSION 10 (RT&#45;3): the X25519 static secret is bytes [0..32]</text>
<text xml:space="preserve" text-anchor="middle" x="474.88" y="-42.5" font-family="Helvetica,sans-Serif" font-size="10.00">of the KDF output used directly (clamp at DH), removing the</text>
<text xml:space="preserve" text-anchor="middle" x="474.88" y="-30.5" font-family="Helvetica,sans-Serif" font-size="10.00">StdRng PRNG from the seal path. v2–9 keep the legacy StdRng</text>
<text xml:space="preserve" text-anchor="middle" x="474.88" y="-18.5" font-family="Helvetica,sans-Serif" font-size="10.00">derivation so existing vaults still open; derivation is</text>
<text xml:space="preserve" text-anchor="middle" x="474.88" y="-6.5" font-family="Helvetica,sans-Serif" font-size="10.00">version&#45;dispatched on the parsed file version.</text>
</g>
<!-- body&#45;&gt;note_v10 -->
<!-- note_pp -->
<g id="node22" class="node">
<title>note_pp</title>
<polygon fill="#fff7d6" stroke="#b08900" stroke-width="1.1" points="905.62,-62 642.12,-62 642.12,-6 911.62,-6 911.62,-56 905.62,-62"/>
<polyline fill="none" stroke="#b08900" stroke-width="1.1" points="905.62,-62 905.62,-56"/>
<polyline fill="none" stroke="#b08900" stroke-width="1.1" points="911.62,-56 905.62,-56"/>
<text xml:space="preserve" text-anchor="middle" x="776.88" y="-48.5" font-family="Helvetica,sans-Serif" font-size="10.00">Passphrase change re&#45;runs Argon2id + KEX and re&#45;wraps</text>
<text xml:space="preserve" text-anchor="middle" x="776.88" y="-36.5" font-family="Helvetica,sans-Serif" font-size="10.00">wrapping_key into a new passphrase_blob; key_blobs and</text>
<text xml:space="preserve" text-anchor="middle" x="776.88" y="-24.5" font-family="Helvetica,sans-Serif" font-size="10.00">the vault body are unchanged (any one key still opens).</text>
<text xml:space="preserve" text-anchor="middle" x="776.88" y="-12.5" font-family="Helvetica,sans-Serif" font-size="10.00">YubiKey slots keep the &quot;…&#45;v1&quot; combiner at every version.</text>
</g>
<!-- body&#45;&gt;note_pp -->
</g>
</svg>
