<svg width="126" height="125" viewBox="0 0 126 125" xmlns="http://www.w3.org/2000/svg">
  <rect width="126" height="125" fill="#E8E7E4"/>
  <g transform="translate(29,0)">
  <g transform="scale(0.9412)">
    <polygon points="0,40 24,40 24,96 10,102 0,90"         fill="#3C3C38"/>
    <polygon points="24,40 52,40 52,96 24,96"              fill="#525250"/>
    <polygon points="52,40 62,40 72,48 72,96 58,102 52,96" fill="#6A6865"/>
    <polygon points="0,12 18,0 24,0 24,40 0,40"            fill="#3E6030"/>
    <polygon points="24,0 52,0 52,40 24,40"                fill="#5C7A3E"/>
    <polygon points="52,0 62,0 62,40 52,40"                fill="#8ABE64"/>
    <line x1="24" y1="0" x2="24" y2="96" stroke="#2a2a28" stroke-width="0.9" opacity="0.5"/>
    <line x1="52" y1="0" x2="52" y2="96" stroke="#7a7875" stroke-width="0.7" opacity="0.5"/>
    <circle cx="38" cy="72" r="9" fill="none" stroke="#C8A84B" stroke-width="2.2"/><circle cx="38" cy="72" r="3.5" fill="#C8A84B"/>
  </g>
  </g>
  <text x="63" y="119" text-anchor="middle"
        font-family="monospace" font-weight="700" font-size="21"
        letter-spacing="0.5" fill="#3C3C38">gabbro</text>
</svg>